<svg width="16.000000" height="16.000000" viewBox="0 0 16 16" fill="none" xmlns="http://www.w3.org/2000/svg" xmlns:xlink="http://www.w3.org/1999/xlink">
	<desc>
			Created with Pixso.
	</desc>
	<defs/>
	<path id="Union" d="M1 7C1 10.3137 3.68629 13 7 13C8.29584 13 9.49571 12.5892 10.4765 11.8907L13.2929 14.7071C13.6834 15.0977 14.3166 15.0977 14.7071 14.7071C15.0976 14.3166 15.0976 13.6834 14.7071 13.2929L11.8907 10.4766C12.5892 9.49573 13 8.29584 13 7C13 3.68628 10.3137 1 7 1C3.68629 1 1 3.68628 1 7ZM11 7C11 9.20917 9.20914 11 7 11C4.79086 11 3 9.20917 3 7C3 4.79083 4.79086 3 7 3C9.20914 3 11 4.79083 11 7Z" clip-rule="evenodd" fill="#000000" fill-opacity="1.000000" fill-rule="evenodd"/>
</svg>
