<svg width="16.000000" height="16.000000" viewBox="0 0 16 16" fill="none" xmlns="http://www.w3.org/2000/svg" xmlns:xlink="http://www.w3.org/1999/xlink">
	<desc>
			Created with Pixso.
	</desc>
	<defs>
		<clipPath id="clip50_2668">
			<rect id="icon-16" rx="0.000000" width="15.000000" height="15.000000" transform="translate(0.500000 0.500000)" fill="white" fill-opacity="0"/>
		</clipPath>
	</defs>
	<rect id="icon-16" rx="0.000000" width="15.000000" height="15.000000" transform="translate(0.500000 0.500000)" fill="#FFFFFF" fill-opacity="0"/>
	<g clip-path="url(#clip50_2668)">
		<path id="Union" d="M9 2C9 1.44 9.44 1 10 1L14 1C14.55 1 15 1.44 15 2L15 6C15 6.55 14.55 7 14 7C13.44 7 13 6.55 13 6L13 4.41L7.37 10.04C6.98 10.43 6.35 10.43 5.95 10.04C5.56 9.64 5.56 9.01 5.95 8.62L11.58 3L10 3C9.44 3 9 2.55 9 2ZM3.33 5C3.24 5 3.15 5.03 3.09 5.09C3.03 5.16 3 5.24 3 5.33L3 12.66C3 12.75 3.03 12.83 3.09 12.9C3.16 12.96 3.24 12.99 3.33 13L10.66 13C10.75 12.99 10.83 12.96 10.9 12.9C10.96 12.83 10.99 12.75 11 12.66L11 8.66C11 8.11 11.44 7.66 12 7.66C12.55 7.66 13 8.11 13 8.66L13 12.66C12.99 13.28 12.75 13.87 12.31 14.31C11.87 14.75 11.28 14.99 10.66 15L3.33 15C2.71 14.99 2.12 14.75 1.68 14.31C1.24 13.87 1 13.28 1 12.66L1 5.33C1 4.71 1.24 4.12 1.68 3.68C2.12 3.24 2.71 3 3.33 3L7.33 3C7.88 3 8.33 3.44 8.33 4C8.33 4.55 7.88 5 7.33 5L3.33 5Z" fill="#000000" fill-opacity="1.000000" fill-rule="evenodd"/>
	</g>
</svg>
